<svg id="visual" viewBox="0 0 900 600" width="900" height="600" xmlns="http://www.w3.org/2000/svg" xmlns:xlink="http://www.w3.org/1999/xlink" version="1.1"><path d="M0 43L30 46C60 49 120 55 180 56C240 57 300 53 360 50C420 47 480 45 540 47C600 49 660 55 720 57C780 59 840 57 870 56L900 55L900 0L870 0C840 0 780 0 720 0C660 0 600 0 540 0C480 0 420 0 360 0C300 0 240 0 180 0C120 0 60 0 30 0L0 0Z" fill="#6198ff"></path><path d="M0 163L30 168C60 173 120 183 180 193C240 203 300 213 360 217C420 221 480 219 540 223C600 227 660 237 720 232C780 227 840 207 870 197L900 187L900 53L870 54C840 55 780 57 720 55C660 53 600 47 540 45C480 43 420 45 360 48C300 51 240 55 180 54C120 53 60 47 30 44L0 41Z" fill="#4988ff"></path><path d="M0 199L30 205C60 211 120 223 180 238C240 253 300 271 360 278C420 285 480 281 540 282C600 283 660 289 720 282C780 275 840 255 870 245L900 235L900 185L870 195C840 205 780 225 720 230C660 235 600 225 540 221C480 217 420 219 360 215C300 211 240 201 180 191C120 181 60 171 30 166L0 161Z" fill="#2d77ff"></path><path d="M0 229L30 235C60 241 120 253 180 275C240 297 300 329 360 343C420 357 480 353 540 354C600 355 660 361 720 347C780 333 840 299 870 282L900 265L900 233L870 243C840 253 780 273 720 280C660 287 600 281 540 280C480 279 420 283 360 276C300 269 240 251 180 236C120 221 60 209 30 203L0 197Z" fill="#0066ff"></path><path d="M0 361L30 365C60 369 120 377 180 387C240 397 300 409 360 415C420 421 480 421 540 419C600 417 660 413 720 405C780 397 840 385 870 379L900 373L900 263L870 280C840 297 780 331 720 345C660 359 600 353 540 352C480 351 420 355 360 341C300 327 240 295 180 273C120 251 60 239 30 233L0 227Z" fill="#005de8"></path><path d="M0 553L30 545C60 537 120 521 180 515C240 509 300 513 360 513C420 513 480 509 540 510C600 511 660 517 720 525C780 533 840 543 870 548L900 553L900 371L870 377C840 383 780 395 720 403C660 411 600 415 540 417C480 419 420 419 360 413C300 407 240 395 180 385C120 375 60 367 30 363L0 359Z" fill="#0055d1"></path><path d="M0 601L30 601C60 601 120 601 180 601C240 601 300 601 360 601C420 601 480 601 540 601C600 601 660 601 720 601C780 601 840 601 870 601L900 601L900 551L870 546C840 541 780 531 720 523C660 515 600 509 540 508C480 507 420 511 360 511C300 511 240 507 180 513C120 519 60 535 30 543L0 551Z" fill="#004cbb"></path></svg>